<svg xmlns="http://www.w3.org/2000/svg" xmlns:xlink="http://www.w3.org/1999/xlink" aria-label="Vite logo" viewBox="0 0 410 404"><path fill="url(#a)" d="M399.641 59.525L215.643 388.545c-3.782 6.754-13.503 6.781-17.323.048L10.82 59.568c-4.143-7.268 2.084-16.123 10.287-14.613l184.279 33.995a10 10 0 0 0 3.615-.006l180.315-33.935c8.2-1.542 14.453 7.293 10.325 14.516Z"/><path fill="url(#b)" d="M292.965.016 156.409 26.79a5 5 0 0 0-4.058 4.103l-8.406 143.433a5 5 0 0 0 6.011 5.165l38.02-8.776a5 5 0 0 1 6.061 5.975l-11.294 55.334a5 5 0 0 0 6.138 5.849l23.487-6.896a5 5 0 0 1 6.302 5.528l-17.955 87.414c-1.124 5.474 6.162 8.458 9.203 3.77l2.032-3.133 111.237-221.995c1.866-3.726-1.357-7.91-5.43-7.185l-39.12 6.967a5 5 0 0 1-5.74-6.343l25.525-88.262a5 5 0 0 0-5.887-6.203Z"/><defs><linearGradient id="a" x1="6" x2="235" y1="32" y2="344" gradientUnits="userSpaceOnUse"><stop stop-color="#41D1FF"/><stop offset="1" stop-color="#BD34FE"/></linearGradient><linearGradient id="b" x1="194.651" x2="236.076" y1="8.818" y2="292.989" gradientUnits="userSpaceOnUse"><stop stop-color="#FFEA83"/><stop offset=".083" stop-color="#FFDD35"/><stop offset="1" stop-color="#FFA800"/></linearGradient></defs></svg>
